<svg width="32" height="32" viewBox="0 0 32 32" fill="none" xmlns="http://www.w3.org/2000/svg">
<path d="M24.9243 3.89043L21.7243 2.21115C18.9153 0.737049 17.5108 0 16 0C14.4892 0 13.0847 0.737048 10.2757 2.21115L9.76091 2.48128L24.0378 10.6395L30.4645 7.42611C29.4306 6.25519 27.7623 5.37974 24.9243 3.89043Z" fill="#1F2937"/>
<path d="M31.5974 9.54295L25.2 12.7416V17.6C25.2 18.2627 24.6627 18.8 24 18.8C23.3373 18.8 22.8 18.2627 22.8 17.6V13.9416L17.2 16.7416V31.8464C18.3487 31.5603 19.6556 30.8745 21.7243 29.7889L24.9243 28.1096C28.367 26.3029 30.0883 25.3996 31.0442 23.7764C32 22.1532 32 20.1333 32 16.0936V15.9064C32 12.8782 32 10.9849 31.5974 9.54295Z" fill="#1F2937"/>
<path d="M14.8 31.8464V16.7416L0.402622 9.54295C0 10.9849 0 12.8782 0 15.9064V16.0936C0 20.1333 0 22.1532 0.955835 23.7764C1.91167 25.3996 3.63299 26.3029 7.07564 28.1096L10.2757 29.7889C12.3444 30.8745 13.6513 31.5603 14.8 31.8464Z" fill="#1F2937"/>
<path d="M1.53551 7.42611L16 14.6584L21.4578 11.9294L7.2393 3.80456L7.07567 3.89043C4.23767 5.37974 2.56944 6.25519 1.53551 7.42611Z" fill="#1F2937"/>
</svg>
