<svg width="32" height="31" viewBox="0 0 32 31" fill="none" xmlns="http://www.w3.org/2000/svg">
<path fill-rule="evenodd" clip-rule="evenodd" d="M30.1395 9.67442C30.1395 7.58406 30.1395 6.53887 29.6379 5.78807C29.4207 5.46304 29.1416 5.18397 28.8166 4.96679C28.1599 4.52799 27.278 4.473 25.6684 4.4661C25.6745 4.89981 25.6745 5.35301 25.6744 5.8203L25.6744 5.95349V7.81395H27.1628C27.7793 7.81395 28.2791 8.31373 28.2791 8.93023C28.2791 9.54674 27.7793 10.0465 27.1628 10.0465H25.6744V12.2791H27.1628C27.7793 12.2791 28.2791 12.7788 28.2791 13.3953C28.2791 14.0119 27.7793 14.5116 27.1628 14.5116H25.6744V16.7442H27.1628C27.7793 16.7442 28.2791 17.244 28.2791 17.8605C28.2791 18.477 27.7793 18.9767 27.1628 18.9767H25.6744V28.6512H23.4419V5.95349C23.4419 3.14699 23.4419 1.74374 22.57 0.871868C21.6981 0 20.2949 0 17.4884 0H14.5116C11.7051 0 10.3019 0 9.43001 0.871868C8.55814 1.74374 8.55814 3.14699 8.55814 5.95349V28.6512H6.32558V18.9767H4.83721C4.22071 18.9767 3.72093 18.477 3.72093 17.8605C3.72093 17.244 4.22071 16.7442 4.83721 16.7442H6.32558V14.5116H4.83721C4.22071 14.5116 3.72093 14.0119 3.72093 13.3953C3.72093 12.7788 4.22071 12.2791 4.83721 12.2791H6.32558V10.0465H4.83721C4.22071 10.0465 3.72093 9.54674 3.72093 8.93023C3.72093 8.31373 4.22071 7.81395 4.83721 7.81395H6.32558V5.95349L6.32557 5.82028C6.32551 5.353 6.32546 4.8998 6.33158 4.4661C4.72204 4.473 3.84012 4.52799 3.18342 4.96679C2.85839 5.18397 2.57932 5.46304 2.36214 5.78807C1.86047 6.53887 1.86047 7.58406 1.86047 9.67442V28.6512H1.11628C0.499775 28.6512 0 29.1509 0 29.7674C0 30.3839 0.499775 30.8837 1.11628 30.8837H30.8837C31.5002 30.8837 32 30.3839 32 29.7674C32 29.1509 31.5002 28.6512 30.8837 28.6512H30.1395V9.67442ZM11.907 14.5116C11.907 13.8951 12.4068 13.3953 13.0233 13.3953H18.9767C19.5932 13.3953 20.093 13.8951 20.093 14.5116C20.093 15.1281 19.5932 15.6279 18.9767 15.6279H13.0233C12.4068 15.6279 11.907 15.1281 11.907 14.5116ZM11.907 18.9767C11.907 18.3602 12.4068 17.8605 13.0233 17.8605H18.9767C19.5932 17.8605 20.093 18.3602 20.093 18.9767C20.093 19.5932 19.5932 20.093 18.9767 20.093H13.0233C12.4068 20.093 11.907 19.5932 11.907 18.9767ZM16 24.186C16.6165 24.186 17.1163 24.6858 17.1163 25.3023V28.6512H14.8837V25.3023C14.8837 24.6858 15.3835 24.186 16 24.186ZM11.907 6.32558C11.907 5.70908 12.4068 5.2093 13.0233 5.2093H18.9767C19.5932 5.2093 20.093 5.70908 20.093 6.32558C20.093 6.94209 19.5932 7.44186 18.9767 7.44186H13.0233C12.4068 7.44186 11.907 6.94209 11.907 6.32558ZM11.907 10.7907C11.907 10.1742 12.4068 9.67442 13.0233 9.67442H18.9767C19.5932 9.67442 20.093 10.1742 20.093 10.7907C20.093 11.4072 19.5932 11.907 18.9767 11.907H13.0233C12.4068 11.907 11.907 11.4072 11.907 10.7907Z" fill="#1F2937"/>
</svg>
