<svg width="32" height="26" viewBox="0 0 32 26" fill="none" xmlns="http://www.w3.org/2000/svg">
<path fill-rule="evenodd" clip-rule="evenodd" d="M1.87452 1.87452C0 3.74903 0 6.76602 0 12.8C0 18.834 0 21.851 1.87452 23.7255C3.74903 25.6 6.76602 25.6 12.8 25.6H19.2C25.234 25.6 28.251 25.6 30.1255 23.7255C32 21.851 32 18.834 32 12.8C32 6.76602 32 3.74903 30.1255 1.87452C28.251 0 25.234 0 19.2 0H12.8C6.76602 0 3.74903 0 1.87452 1.87452ZM26.5219 5.63178C26.9461 6.14091 26.8774 6.89759 26.3682 7.32187L22.8539 10.2505C21.4357 11.4324 20.2862 12.3903 19.2717 13.0428C18.2149 13.7224 17.1857 14.1518 16 14.1518C14.8143 14.1518 13.7851 13.7224 12.7283 13.0428C11.7138 12.3903 10.5643 11.4324 9.14617 10.2505L5.63178 7.32187C5.12265 6.89759 5.05386 6.14091 5.47813 5.63178C5.90241 5.12265 6.65909 5.05386 7.16822 5.47813L10.6225 8.35666C12.1152 9.60061 13.1516 10.4615 14.0265 11.0242C14.8735 11.5689 15.4479 11.7518 16 11.7518C16.5521 11.7518 17.1265 11.5689 17.9735 11.0242C18.8484 10.4615 19.8848 9.60061 21.3775 8.35666L24.8318 5.47813C25.3409 5.05386 26.0976 5.12265 26.5219 5.63178Z" fill="#1F2937"/>
</svg>
