<svg width="24" height="29" viewBox="0 0 24 29" fill="none" xmlns="http://www.w3.org/2000/svg">
<path d="M3.31625 9.55378L9.00424 4.4325C12.6809 1.12211 14.5193 -0.533087 15.7793 0.15307C17.0394 0.839226 16.5516 3.22986 15.576 8.01113L15.484 8.46194C15.1321 10.1864 14.9562 11.0487 15.3968 11.702L15.4202 11.7359C15.8751 12.3802 16.7726 12.5633 18.5674 12.9296C21.7973 13.5886 23.4123 13.9182 23.7582 15.0091C23.7639 15.0272 23.7694 15.0453 23.7745 15.0635C24.0868 16.1634 22.8936 17.2377 20.5071 19.3864L14.8192 24.5075C11.1424 27.8179 9.30404 29.4731 8.04399 28.787C6.78395 28.1008 7.2718 25.7102 8.24749 20.9288L8.33944 20.4782C8.69135 18.7537 8.86731 17.8915 8.42665 17.2382L8.40321 17.2042C7.94833 16.5599 7.05089 16.3768 5.25603 16.0105C2.02613 15.3515 0.41118 15.022 0.0652622 13.931C0.0595355 13.913 0.0540856 13.8948 0.0489157 13.8766C-0.263341 12.7767 0.929857 11.7024 3.31625 9.55378Z" fill="#1F2937"/>
</svg>
