<svg width="28" height="29" viewBox="0 0 28 29" fill="none" xmlns="http://www.w3.org/2000/svg">
<path fill-rule="evenodd" clip-rule="evenodd" d="M4.51604 12.2345V9.37947C4.51604 4.19933 8.71537 0 13.8955 0C19.0756 0 23.275 4.19933 23.275 9.37947V12.2345C24.824 12.3501 25.8327 12.6422 26.57 13.3795C27.791 14.6005 27.791 16.5656 27.791 20.4959C27.791 24.4261 27.791 26.3912 26.57 27.6122C25.3491 28.8332 23.384 28.8332 19.4537 28.8332H8.33731C4.40706 28.8332 2.44194 28.8332 1.22097 27.6122C0 26.3912 0 24.4261 0 20.4959C0 16.5656 0 14.6005 1.22097 13.3795C1.95831 12.6422 2.96703 12.3501 4.51604 12.2345ZM6.60037 9.37947C6.60037 5.35047 9.86651 2.08433 13.8955 2.08433C17.9245 2.08433 21.1906 5.35047 21.1906 9.37947V12.1635C20.6584 12.1586 20.0811 12.1586 19.4537 12.1586H8.33731C7.7099 12.1586 7.13258 12.1586 6.60037 12.1635V9.37947ZM13.8955 16.6746C14.4711 16.6746 14.9377 17.1412 14.9377 17.7168V23.275C14.9377 23.8505 14.4711 24.3171 13.8955 24.3171C13.3199 24.3171 12.8533 23.8505 12.8533 23.275V17.7168C12.8533 17.1412 13.3199 16.6746 13.8955 16.6746Z" fill="#1F2937"/>
</svg>
