<svg width="26" height="29" viewBox="0 0 26 29" fill="none" xmlns="http://www.w3.org/2000/svg">
<path d="M12.9079 8.32397C12.958 8.29903 12.9826 8.29854 12.989 8.29854C12.9954 8.29854 13.02 8.29903 13.0702 8.32397C13.124 8.35076 13.2081 8.40664 13.315 8.51732C13.5354 8.74555 13.7884 9.14006 14.025 9.73167C14.2583 10.3149 14.4528 11.0324 14.5879 11.8477C14.6676 12.329 14.7248 12.8333 14.7583 13.3498H11.2198C11.2532 12.8333 11.3104 12.329 11.3901 11.8477C11.5252 11.0324 11.7197 10.3149 11.953 9.73167C12.1896 9.14006 12.4427 8.74555 12.663 8.51732C12.7699 8.40664 12.854 8.35076 12.9079 8.32397Z" fill="#1F2937"/>
<path d="M9.05093 13.3498C9.08714 12.7162 9.15518 12.0928 9.25442 11.4938C9.3938 10.6526 9.59437 9.8617 9.85344 9.16057C9.41663 9.42038 9.01282 9.73407 8.65183 10.0951C8.08226 10.6646 7.63046 11.3408 7.32221 12.085C7.15319 12.493 7.02915 12.9171 6.95158 13.3498H9.05093Z" fill="#1F2937"/>
<path d="M6.95158 15.5147H9.05093C9.08714 16.1483 9.15518 16.7717 9.25442 17.3707C9.3938 18.2119 9.59437 19.0028 9.85344 19.7039C9.41663 19.4441 9.01282 19.1304 8.65183 18.7694C8.08226 18.1999 7.63046 17.5237 7.32221 16.7795C7.15319 16.3714 7.02915 15.9473 6.95158 15.5147Z" fill="#1F2937"/>
<path d="M19.0265 13.3498C18.9489 12.9171 18.8248 12.493 18.6558 12.085C18.3476 11.3408 17.8958 10.6646 17.3262 10.0951C16.9652 9.73407 16.5614 9.42038 16.1246 9.16057C16.3836 9.8617 16.5842 10.6526 16.7236 11.4938C16.8228 12.0928 16.8909 12.7162 16.9271 13.3498H19.0265Z" fill="#1F2937"/>
<path d="M16.9271 15.5147H19.0265C18.9489 15.9473 18.8248 16.3714 18.6558 16.7795C18.3476 17.5237 17.8958 18.1999 17.3262 18.7694C16.9652 19.1304 16.5614 19.4441 16.1246 19.7039C16.3836 19.0028 16.5842 18.2119 16.7236 17.3707C16.8228 16.7717 16.8909 16.1483 16.9271 15.5147Z" fill="#1F2937"/>
<path d="M14.7583 15.5147C14.7248 16.0312 14.6676 16.5355 14.5879 17.0168C14.4528 17.8321 14.2583 18.5496 14.025 19.1328C13.7884 19.7244 13.5354 20.1189 13.315 20.3472C13.2081 20.4578 13.124 20.5137 13.0702 20.5405C13.02 20.5654 12.9954 20.5659 12.989 20.5659C12.9826 20.5659 12.958 20.5654 12.9079 20.5405C12.854 20.5137 12.7699 20.4578 12.663 20.3472C12.4427 20.1189 12.1896 19.7244 11.953 19.1328C11.7197 18.5496 11.5252 17.8321 11.3901 17.0168C11.3104 16.5355 11.2532 16.0312 11.2198 15.5147H14.7583Z" fill="#1F2937"/>
<path fill-rule="evenodd" clip-rule="evenodd" d="M0.54484 4.44861C0 5.22487 0 7.53229 0 12.1471V14.4198C0 22.5568 6.11777 26.5055 9.95617 28.1822C10.9974 28.6371 11.518 28.8645 12.989 28.8645C14.46 28.8645 14.9806 28.6371 16.0219 28.1822C19.8603 26.5055 25.978 22.5568 25.978 14.4198V12.1471C25.978 7.53229 25.978 5.22487 25.4332 4.44861C24.8883 3.67234 22.7188 2.92968 18.3796 1.44437L17.5529 1.16139C15.291 0.387129 14.16 0 12.989 0C11.818 0 10.687 0.387129 8.42514 1.16139L7.59844 1.44437C3.25927 2.92968 1.08968 3.67234 0.54484 4.44861ZM4.69048 14.4322C4.69048 13.3425 4.90513 12.2633 5.32217 11.2565C5.73921 10.2497 6.35047 9.33488 7.12106 8.56429C7.89165 7.79369 8.80648 7.18243 9.8133 6.76539C10.8201 6.34835 11.8992 6.1337 12.989 6.1337C14.0788 6.1337 15.1579 6.34835 16.1647 6.76539C17.1716 7.18243 18.0864 7.7937 18.857 8.56429C19.6276 9.33488 20.2388 10.2497 20.6559 11.2565C21.0729 12.2634 21.2875 13.3425 21.2875 14.4322C21.2875 15.522 21.0729 16.6011 20.6559 17.608C20.2388 18.6148 19.6276 19.5296 18.857 20.3002C18.0864 21.0708 17.1716 21.682 16.1647 22.0991C15.1579 22.5161 14.0788 22.7308 12.989 22.7308C11.8992 22.7308 10.8201 22.5161 9.8133 22.0991C8.80648 21.682 7.89165 21.0708 7.12106 20.3002C6.35047 19.5296 5.73921 18.6148 5.32217 17.608C4.90512 16.6011 4.69048 15.522 4.69048 14.4322Z" fill="#1F2937"/>
</svg>
